<svg xmlns="http://www.w3.org/2000/svg" version="1.1" xmlns:xlink="http://www.w3.org/1999/xlink" xmlns:svgjs="http://svgjs.dev/svgjs" width="1000" height="623" viewBox="0 0 1000 623"><g transform="matrix(1,0,0,1,-0.6060606060606233,0.2522267206477409)"><svg viewBox="0 0 396 247" data-background-color="#ffffff" preserveAspectRatio="xMidYMid meet" height="623" width="1000" xmlns="http://www.w3.org/2000/svg" xmlns:xlink="http://www.w3.org/1999/xlink"><g id="tight-bounds" transform="matrix(1,0,0,1,0.2400000000000091,-0.09999999999999432)"><svg viewBox="0 0 395.52 247.2" height="247.2" width="395.52"><g><svg></svg></g><g><svg viewBox="0 0 395.52 247.2" height="247.2" width="395.52"><g transform="matrix(1,0,0,1,39.55199999999999,87.89409863471718)"><svg viewBox="0 0 316.416 71.41180273056563" height="71.41180273056563" width="316.416"><g><svg viewBox="0 0 316.416 71.41180273056563" height="71.41180273056563" width="316.416"><g><svg viewBox="0 0 316.416 71.41180273056563" height="71.41180273056563" width="316.416"><g><svg viewBox="0 0 316.416 71.41180273056563" height="71.41180273056563" width="316.416"><g id="textblocktransform"><svg viewBox="0 0 316.416 71.41180273056563" height="71.41180273056563" width="316.416" id="textblock"><g><svg viewBox="0 0 316.416 71.41180273056563" height="71.41180273056563" width="316.416"><g transform="matrix(1,0,0,1,0,0)"><svg width="316.416" viewBox="-0.15000000596046448 -39.75 179.4399871826172 40.5" height="71.41180273056563" data-palette-color="#ff0000"><path d="M26.9 0L20.2 0 18.3-8.05 8.3-8.05 6.4 0-0.15 0 9.45-34.55 17.35-34.55 26.9 0ZM13.3-29.6L9.4-12.95 17.2-12.95 13.3-29.6ZM43.2-27.2Q46.35-27.2 48.15-25.1 49.95-23 49.95-19.4L49.95-19.4 49.95 0 43.7 0 43.7-18.55Q43.7-20.65 43.02-21.53 42.35-22.4 41.05-22.4L41.05-22.4Q39.7-22.4 38.55-21.4 37.4-20.4 36.3-18.45L36.3-18.45 36.3 0 30.05 0 30.05-26.45 35.5-26.45 35.95-23Q37.4-25.05 39.17-26.13 40.95-27.2 43.2-27.2L43.2-27.2ZM56.3-26.45L62.55-26.45 62.55 0 56.3 0 56.3-26.45ZM59.45-39.75Q61.15-39.75 62.22-38.68 63.3-37.6 63.3-35.95L63.3-35.95Q63.3-34.3 62.22-33.23 61.15-32.15 59.45-32.15L59.45-32.15Q57.75-32.15 56.67-33.23 55.6-34.3 55.6-35.95L55.6-35.95Q55.6-37.6 56.67-38.68 57.75-39.75 59.45-39.75L59.45-39.75ZM94.74-27.2Q97.59-27.2 99.34-25.08 101.09-22.95 101.09-19.4L101.09-19.4 101.09 0 94.89 0 94.89-18.6Q94.89-22.45 92.54-22.45L92.54-22.45Q91.29-22.45 90.24-21.48 89.19-20.5 88.19-18.6L88.19-18.6 88.19 0 82.04 0 82.04-18.6Q82.04-22.45 79.69-22.45L79.69-22.45Q78.39-22.45 77.34-21.45 76.29-20.45 75.34-18.6L75.34-18.6 75.34 0 69.14 0 69.14-26.45 74.59-26.45 75.04-23.05Q77.79-27.2 81.89-27.2L81.89-27.2Q83.94-27.2 85.44-26.03 86.94-24.85 87.64-22.75L87.64-22.75Q89.04-24.9 90.77-26.05 92.49-27.2 94.74-27.2L94.74-27.2ZM127.59-13.85Q127.59-13.4 127.44-11.3L127.44-11.3 112.49-11.3Q112.79-7.3 114.19-5.65 115.59-4 118.09-4L118.09-4Q119.69-4 121.09-4.55 122.49-5.1 124.09-6.25L124.09-6.25 126.69-2.7Q122.74 0.75 117.64 0.75L117.64 0.75Q112.09 0.75 109.09-2.9 106.09-6.55 106.09-13.05L106.09-13.05Q106.09-19.45 108.97-23.33 111.84-27.2 116.99-27.2L116.99-27.2Q121.99-27.2 124.79-23.75 127.59-20.3 127.59-13.85L127.59-13.85ZM121.44-15.35L121.44-15.65Q121.44-19.25 120.39-21.03 119.34-22.8 117.04-22.8L117.04-22.8Q114.94-22.8 113.81-21.08 112.69-19.35 112.49-15.35L112.49-15.35 121.44-15.35ZM129.69-34.55L153.09-34.55 152.39-29.45 144.44-29.45 144.44 0 137.99 0 137.99-29.45 129.69-29.45 129.69-34.55ZM172.79-34.55L179.29-34.55 170.24 0 162.39 0 153.09-34.55 159.79-34.55 166.44-5.7 172.79-34.55Z" opacity="1" transform="matrix(1,0,0,1,0,0)" fill="#ff0000" class="undefined-text-0" data-fill-palette-color="primary" id="text-0"></path></svg></g></svg></g></svg></g></svg></g></svg></g></svg></g></svg></g><g mask="url(#f08b6283-cf72-42f8-b22a-efb252d22d29)"><g transform="matrix(4.086666666666667, 0, 0, 4.086666666666667, 75.15999999999998, 0.9999999999999858)"><svg xmlns="http://www.w3.org/2000/svg" xmlns:xlink="http://www.w3.org/1999/xlink" version="1.1" x="0" y="0" viewBox="0 0 60 60" enable-background="new 0 0 60 60" xml:space="preserve" height="60" width="60" class="icon-none" data-fill-palette-color="accent" id="none"><g fill="#ff0000" data-fill-palette-color="accent"><path fill="#ff0000" d="M37.54 52.33c0.14 0.4 0.52 0.67 0.94 0.67h11.39c0.44 0 0.82-0.28 0.95-0.7l3.12-9.89c0.12-0.37 0.01-0.78-0.29-1.04l-9-8.11c-0.38-0.34-0.95-0.34-1.33 0l-9 8.03c-0.3 0.27-0.41 0.69-0.28 1.08L37.54 52.33zM44 35.34l7.86 7.08L49.15 51H39.2l-3.03-8.67L44 35.34z" data-fill-palette-color="accent"></path><path fill="#ff0000" d="M59 0H1C0.45 0 0 0.45 0 1v58c0 0.55 0.45 1 1 1h58c0.55 0 1-0.45 1-1V1C60 0.45 59.55 0 59 0zM58 58H2V2h56V58z" data-fill-palette-color="accent"></path><path fill="#ff0000" d="M7 26h18c0.55 0 1-0.45 1-1V7c0-0.55-0.45-1-1-1H7C6.45 6 6 6.45 6 7v18C6 25.55 6.45 26 7 26zM8 8h16v16H8V8z" data-fill-palette-color="accent"></path><path fill="#ff0000" d="M35 26h18c0.01 0 0.01 0 0.02 0 0.55 0 1-0.45 1-1 0-0.23-0.08-0.44-0.21-0.61L44.89 6.55c-0.34-0.68-1.45-0.68-1.79 0l-9 18c-0.16 0.31-0.14 0.68 0.04 0.97C34.33 25.82 34.65 26 35 26zM44 9.24L51.38 24H36.62L44 9.24z" data-fill-palette-color="accent"></path><path fill="#ff0000" d="M16 54c5.51 0 10-4.49 10-10s-4.49-10-10-10S6 38.49 6 44 10.49 54 16 54zM16 36c4.41 0 8 3.59 8 8s-3.59 8-8 8-8-3.59-8-8S11.59 36 16 36z" data-fill-palette-color="accent"></path></g></svg></g></g></svg></g><defs><mask id="f08b6283-cf72-42f8-b22a-efb252d22d29"><rect width="640" height="400" fill="white"></rect><rect width="348.05760000000004" height="105.12902821340765" fill="black" x="145.97119999999998" y="147.43548589329617" id="transform-me" transform="matrix(1,0,0,1,-122.24000000000001,-76.4)"></rect></mask></defs></svg><rect width="395.52" height="247.2" fill="none" stroke="none" visibility="hidden"></rect></g></svg></g></svg>